<?xml version="1.0" encoding="UTF-8"?>
<svg width="32px" height="32px" viewBox="0 0 32 32" version="1.1" xmlns="http://www.w3.org/2000/svg">
    <title>TraefikRelay Icon</title>
    <g id="Icon" stroke="none" stroke-width="1" fill="none" fill-rule="evenodd">
        <rect id="Background" fill="#1890FF" x="0" y="0" width="32" height="32" rx="6"></rect>
        <path d="M24,13 L24,19 C24,19.5522847 23.5522847,20 23,20 L17,20 C16.4477153,20 16,19.5522847 16,19 L16,13 C16,12.4477153 16.4477153,12 17,12 L23,12 C23.5522847,12 24,12.4477153 24,13 Z" id="Square" fill="#FFFFFF"></path>
        <path d="M16,16 L11,16 C10.4477153,16 10,16.4477153 10,17 L10,19 C10,19.5522847 9.55228475,20 9,20 L8,20 C7.44771525,20 7,19.5522847 7,19 L7,13 C7,12.4477153 7.44771525,12 8,12 L10,12 C10.5522847,12 11,12.4477153 11,13 L11,14 C11,14.5522847 11.4477153,15 12,15 L16,15 L16,16 Z" id="Path" fill="#FFFFFF"></path>
        <path d="M16,17 L16,20 C16,22.209139 14.209139,24 12,24 L9,24 C8.44771525,24 8,23.5522847 8,23 L8,21 C8,20.4477153 8.44771525,20 9,20 L11,20 C11.5522847,20 12,19.5522847 12,19 L12,17 L16,17 Z" id="Path" fill="#FFFFFF"></path>
        <circle id="Dot" fill="#FFFFFF" cx="20" cy="16" r="2"></circle>
    </g>
</svg>